<svg preserveAspectRatio="none" overflow="visible" style="display: block;" width="420" height="298" viewBox="0 0 420 298" fill="none" xmlns="http://www.w3.org/2000/svg">
<g id="Illustration / Investment">
<path id="Vector" d="M52.5 250.671H367.5" stroke="#0F172A" stroke-width="3" stroke-linecap="round"/>
<path id="Vector_2" d="M119 185.812H89.25C86.3505 185.812 84 188.166 84 191.071V245.412C84 248.316 86.3505 250.671 89.25 250.671H119C121.899 250.671 124.25 248.316 124.25 245.412V191.071C124.25 188.166 121.899 185.812 119 185.812Z" fill="#E8ECF1"/>
<path id="Vector_3" d="M175 154.259H145.25C142.351 154.259 140 156.613 140 159.518V245.412C140 248.316 142.351 250.671 145.25 250.671H175C177.899 250.671 180.25 248.316 180.25 245.412V159.518C180.25 156.613 177.899 154.259 175 154.259Z" fill="#E8ECF1"/>
<path id="Vector_4" d="M231 115.694H201.25C198.351 115.694 196 118.049 196 120.953V245.412C196 248.316 198.351 250.671 201.25 250.671H231C233.899 250.671 236.25 248.316 236.25 245.412V120.953C236.25 118.049 233.899 115.694 231 115.694Z" fill="#1E3A8A"/>
<path id="Vector_5" d="M287 77.1294H257.25C254.351 77.1294 252 79.4839 252 82.3882V245.412C252 248.316 254.351 250.671 257.25 250.671H287C289.899 250.671 292.25 248.316 292.25 245.412V82.3882C292.25 79.4839 289.899 77.1294 287 77.1294Z" fill="#C8102E"/>
<path id="Vector_6" d="M87.5 166.529L150.5 131.471L206.5 96.4118L281.75 50.8353" stroke="#0F172A" stroke-width="4" stroke-linecap="round" stroke-linejoin="round"/>
<path id="Vector_7" d="M259 47.3294H288.75V77.1294" stroke="#0F172A" stroke-width="4" stroke-linecap="round" stroke-linejoin="round"/>
<path id="Vector_8" d="M87.5 173.541C91.366 173.541 94.5 170.402 94.5 166.529C94.5 162.657 91.366 159.518 87.5 159.518C83.634 159.518 80.5 162.657 80.5 166.529C80.5 170.402 83.634 173.541 87.5 173.541Z" fill="white" stroke="#0F172A" stroke-width="4"/>
<path id="Vector_9" d="M334.25 233.141C346.814 233.141 357 222.939 357 210.353C357 197.767 346.814 187.565 334.25 187.565C321.686 187.565 311.5 197.767 311.5 210.353C311.5 222.939 321.686 233.141 334.25 233.141Z" fill="white" stroke="#0F172A" stroke-width="3"/>
<path id="Vector_10" d="M334.25 220.871C340.049 220.871 344.75 216.162 344.75 210.353C344.75 204.544 340.049 199.835 334.25 199.835C328.451 199.835 323.75 204.544 323.75 210.353C323.75 216.162 328.451 220.871 334.25 220.871Z" fill="#E8ECF1"/>
</g>
</svg>
